<?xml version="1.0" encoding="UTF-8"?><svg class="icon icon-cart" xmlns="http://www.w3.org/2000/svg" viewBox="0 0 1126 1024"><path d="M1087,389h-105l-33-264c-.67-33.33-12.5-62-35.5-86S862.33,2,829,0H298c-32.67,2-60.5,14.83-83.5,38.5-23,23.67-35.17,51.83-36.5,84.5l-34,266H39c-10.67,0-19.83,3.83-27.5,11.5-7.67,7.67-11.5,17.17-11.5,28.5,0,10.67,3.83,19.83,11.5,27.5,7.67,7.67,16.83,11.5,27.5,11.5h23l43,432c3.33,35.33,18.17,64.83,44.5,88.5,26.33,23.67,57.17,35.5,92.5,35.5h643c35.33,0,66-11.83,92-35.5s40.67-53.17,44-88.5l43-432h23c10.67,0,19.83-3.83,27.5-11.5s11.5-16.83,11.5-27.5c0-11.33-3.83-20.83-11.5-28.5s-16.83-11.5-27.5-11.5ZM256,132c1.33-14.67,6-27.17,14-37.5s17.33-15.5,28-15.5h531c10,0,19,5.17,27,15.5s12.67,23.17,14,38.5l34,256H223l33-257ZM366,825c0,11.33-3.83,20.83-11.5,28.5s-17.17,11.5-28.5,11.5c-10.67,0-19.83-3.83-27.5-11.5s-11.5-17.17-11.5-28.5v-240c0-10.67,3.83-20,11.5-28s16.83-12,27.5-12c11.33,0,20.83,4,28.5,12s11.5,17.33,11.5,28v240ZM601,825c0,11.33-3.83,20.83-11.5,28.5s-16.83,11.5-27.5,11.5-19.83-3.83-27.5-11.5-11.5-17.17-11.5-28.5v-240c0-7.33,1.67-14,5-20s8.33-10.67,15-14c6-4,12.5-6,19.5-6s13.5,2,19.5,6c6,3.33,10.67,8,14,14s5,12.67,5,20v240ZM837,825c0,11.33-3.83,20.83-11.5,28.5s-16.83,11.5-27.5,11.5-19.83-3.83-27.5-11.5-11.5-17.17-11.5-28.5v-240c0-10.67,3.83-20,11.5-28s16.83-12,27.5-12,19.83,4,27.5,12,11.5,17.33,11.5,28v240Z"/></svg>