<svg xmlns="http://www.w3.org/2000/svg" width="26" height="26" viewBox="0 0 26 26" fill="none" class="icon icon-cart">
  <path fill="none" d="M22.3887 8.2443H3.61089L4.59086 19.0192C4.64385 19.6024 4.91293 20.1447 5.34525 20.5397C5.77758 20.9347 6.34193 21.1538 6.92752 21.154H19.072C19.6576 21.1538 20.222 20.9347 20.6543 20.5397C21.0866 20.1447 21.3557 19.6024 21.4087 19.0192L22.3887 8.2443Z" stroke="currentColor" stroke-width="1.625" stroke-linejoin="round"/>
  <path fill="none" d="M17.6934 10.5922V7.0714C17.6934 5.82635 17.1988 4.6323 16.3184 3.75192C15.438 2.87154 14.244 2.37695 12.9989 2.37695C11.7539 2.37695 10.5598 2.87154 9.67944 3.75192C8.79906 4.6323 8.30447 5.82635 8.30447 7.0714V10.5922" stroke="currentColor" stroke-width="1.625" stroke-linecap="round"/>
</svg>
