<svg xmlns="http://www.w3.org/2000/svg" width="24" height="24" viewBox="0 0 24 24" fill="none" class="icon icon-search">
  <path fill="currentColor" fill-rule="evenodd" clip-rule="evenodd" d="M10.1779 3C6.21368 3 3 6.21368 3 10.1779C3 14.1422 6.21368 17.3559 10.1779 17.3559C12.1604 17.3559 13.9535 16.5536 15.2535 15.2535C16.5536 13.9535 17.3559 12.1604 17.3559 10.1779C17.3559 6.21368 14.1422 3 10.1779 3ZM1 10.1779C1 5.10911 5.10911 1 10.1779 1C15.2468 1 19.3559 5.10911 19.3559 10.1779C19.3559 12.3517 18.5992 14.3502 17.3364 15.9222L22.7071 21.2929C23.0976 21.6834 23.0976 22.3166 22.7071 22.7071C22.3166 23.0976 21.6834 23.0976 21.2929 22.7071L15.9222 17.3364C14.3502 18.5992 12.3517 19.3559 10.1779 19.3559C5.10911 19.3559 1 15.2468 1 10.1779Z"/>
</svg>
