<?xml version="1.0" encoding="UTF-8"?><svg class="icon icon-account" xmlns="http://www.w3.org/2000/svg" viewBox="0 0 1022 1024"><path d="M511.53.01c-104-.67-195.33,25.67-274,79-79.33,54-139.67,121.67-181,203C15.2,363.35-3.47,452.01.53,548.01c3.33,95.33,36,184,98,266,1.33,2.67,2.67,4.83,4,6.5s2.67,3.5,4,5.5c50,66,111,115.33,183,148,72,33.33,146,50,222,50s150-16.67,222-50c72-32.67,133-82,183-148,1.33-2,2.83-3.83,4.5-5.5s2.83-3.83,3.5-6.5c62-82,94.67-170.67,98-266,3.33-96-15.5-184.67-56.5-266-41-81.33-101.17-149-180.5-203C706.2,25.68,614.86-.65,511.53.01ZM888.53,739.01c-48.67-55.33-106-96.67-172-124-66.67-27.33-135-41-205-41s-138.33,13.67-205,41c-66.67,27.33-124,68.67-172,124-44.67-71.33-66-146.33-64-225,2-78.67,21.67-151,59-217,37.33-66,89.33-120.33,156-163,66-42.67,141.33-63.33,226-62,84-1.33,159.33,19.33,226,62,66.67,42.67,118.5,97,155.5,163s56.83,138.33,59.5,217c2,78.67-19.33,153.67-64,225ZM511.53,190.01c-46,0-85.33,16.17-118,48.5-32.67,32.33-49,71.5-49,117.5,2,55.33,20.33,97,55,125,34,28,71.33,42,112,42s78.33-14,113-42c34-28,51.67-69.67,53-125,0-46-16.17-85.17-48.5-117.5-32.33-32.33-71.5-48.5-117.5-48.5Z"/></svg>