<svg xmlns="http://www.w3.org/2000/svg" width="24" height="24" viewBox="0 0 24 24" fill="none" class="icon icon-account">
  <path fill="currentColor" fill-rule="evenodd" clip-rule="evenodd" d="M0 12C0 5.37258 5.37258 0 12 0C18.6274 0 24 5.37258 24 12C24 18.6274 18.6274 24 12 24C5.37258 24 0 18.6274 0 12ZM12 2C6.47715 2 2 6.47715 2 12C2 14.2917 2.77091 16.4034 4.06756 18.0899C4.30103 16.5257 5.12974 15.0864 6.39946 13.9981C7.04948 13.4409 7.79398 12.9928 8.59702 12.6633C7.61461 11.7503 7 10.4469 7 9C7 6.23858 9.23858 4 12 4C14.7614 4 17 6.23858 17 9C17 10.4469 16.3854 11.7503 15.403 12.6633C16.206 12.9929 16.9505 13.4409 17.6005 13.9981C18.8703 15.0864 19.699 16.5257 19.9324 18.0899C21.2291 16.4034 22 14.2917 22 12C22 6.47715 17.5228 2 12 2ZM18 20V19C18 17.728 17.4118 16.4704 16.299 15.5166C15.1814 14.5587 13.6368 14 12 14C10.3632 14 8.81861 14.5587 7.70104 15.5166C6.58824 16.4704 6 17.728 6 19V20C7.67132 21.2554 9.74879 22 12 22C14.2512 22 16.3287 21.2554 18 20ZM12 12C13.6569 12 15 10.6569 15 9C15 7.34315 13.6569 6 12 6C10.3431 6 9 7.34315 9 9C9 10.6569 10.3431 12 12 12Z"/>
</svg>
